<?xml version="1.0" encoding="UTF-8"?>
<svg width="256px" height="256px" viewBox="0 0 256 256" xmlns="http://www.w3.org/2000/svg">
    <title>ArgoCD</title>
    <defs>
        <linearGradient id="bg" x1="0%" y1="100%" x2="100%" y2="0%">
            <stop stop-color="#1A4B8E" offset="0%"/>
            <stop stop-color="#326CE5" offset="100%"/>
        </linearGradient>
    </defs>
    <rect fill="url(#bg)" width="256" height="256" rx="20"/>
    <!-- Rocket body -->
    <path d="M128 50 L160 110 L140 110 L140 150 L116 150 L116 110 L96 110 Z" fill="#FFF"/>
    <!-- Rocket nose cone -->
    <path d="M128 50 L145 85 L111 85 Z" fill="#FFF"/>
    <!-- Rocket fins left -->
    <path d="M116 140 L80 160 L80 170 L116 160 Z" fill="#FFF"/>
    <!-- Rocket fins right -->
    <path d="M140 140 L176 160 L176 170 L140 160 Z" fill="#FFF"/>
    <!-- Exhaust flame -->
    <path d="M116 150 L128 190 L140 150" fill="#FFF" opacity="0.9"/>
    <path d="M120 150 L128 178 L136 150" fill="#FFF" opacity="0.7"/>
    <!-- Git sync arrows on body -->
    <path d="M122 95 L128 88 L134 95" fill="none" stroke="#326CE5" stroke-width="3" stroke-linecap="round" stroke-linejoin="round"/>
    <path d="M122 105 L128 112 L134 105" fill="none" stroke="#326CE5" stroke-width="3" stroke-linecap="round" stroke-linejoin="round"/>
</svg>
