<?xml version="1.0" encoding="UTF-8"?>
<svg width="256px" height="256px" viewBox="0 0 256 256" xmlns="http://www.w3.org/2000/svg">
    <title>Kubernetes Cloud Controller Manager</title>
    <defs>
        <linearGradient id="bg" x1="0%" y1="100%" x2="100%" y2="0%">
            <stop stop-color="#1A4B8E" offset="0%"/>
            <stop stop-color="#326CE5" offset="100%"/>
        </linearGradient>
    </defs>
    <rect fill="url(#bg)" width="256" height="256" rx="20"/>
    <!-- Cloud shape -->
    <path d="M68,168 Q40,168 40,144 Q40,120 64,118 Q64,96 92,92 Q112,80 132,92 Q148,76 176,84 Q208,84 208,112 Q224,116 224,140 Q224,168 196,168 Z" fill="none" stroke="#FFF" stroke-width="5" stroke-linejoin="round"/>
    <!-- Gear inside cloud -->
    <circle cx="140" cy="136" r="28" fill="none" stroke="#FFF" stroke-width="4.5"/>
    <circle cx="140" cy="136" r="11" fill="none" stroke="#FFF" stroke-width="3.5"/>
    <!-- Gear teeth -->
    <rect x="136" y="102" width="8" height="12" rx="2" fill="#FFF"/>
    <rect x="136" y="158" width="8" height="12" rx="2" fill="#FFF"/>
    <rect x="106" y="132" width="12" height="8" rx="2" fill="#FFF"/>
    <rect x="162" y="132" width="12" height="8" rx="2" fill="#FFF"/>
    <rect x="115" y="115" width="10" height="8" rx="2" fill="#FFF" transform="rotate(45,120,119)"/>
    <rect x="155" y="115" width="10" height="8" rx="2" fill="#FFF" transform="rotate(-45,160,119)"/>
    <rect x="115" y="149" width="10" height="8" rx="2" fill="#FFF" transform="rotate(-45,120,153)"/>
    <rect x="155" y="149" width="10" height="8" rx="2" fill="#FFF" transform="rotate(45,160,153)"/>
</svg>
