<?xml version="1.0" encoding="UTF-8"?>
<svg width="256px" height="256px" viewBox="0 0 256 256" xmlns="http://www.w3.org/2000/svg">
    <title>Kustomize</title>
    <defs>
        <linearGradient id="bg" x1="0%" y1="100%" x2="100%" y2="0%">
            <stop stop-color="#1A4B8E" offset="0%"/>
            <stop stop-color="#326CE5" offset="100%"/>
        </linearGradient>
    </defs>
    <rect fill="url(#bg)" width="256" height="256" rx="20"/>
    <!-- Stacked layers -->
    <!-- Bottom layer -->
    <path d="M52 176l76 24 76-24v16l-76 24-76-24z" fill="none" stroke="#FFF" stroke-width="5" stroke-linejoin="round"/>
    <path d="M52 176v-16l76 24 76-24v16" fill="none" stroke="#FFF" stroke-width="5" stroke-linejoin="round"/>
    <!-- Middle layer -->
    <path d="M52 144l76 24 76-24v16l-76 24-76-24z" fill="none" stroke="#FFF" stroke-width="5" stroke-linejoin="round"/>
    <path d="M52 144v-16l76 24 76-24v16" fill="none" stroke="#FFF" stroke-width="5" stroke-linejoin="round"/>
    <!-- Top layer -->
    <path d="M52 112l76 24 76-24v16l-76 24-76-24z" fill="none" stroke="#FFF" stroke-width="5" stroke-linejoin="round"/>
    <path d="M52 112v-16l76 24 76-24v16" fill="none" stroke="#FFF" stroke-width="5" stroke-linejoin="round"/>
    <!-- Top cap -->
    <path d="M52 80l76 24 76-24v16l-76 24-76-24z" fill="#FFF" stroke="#FFF" stroke-width="5" stroke-linejoin="round"/>
    <path d="M52 80v-16l76 24 76-24v16" fill="none" stroke="#FFF" stroke-width="5" stroke-linejoin="round"/>
</svg>
